<svg width="18" height="18" viewBox="0 0 18 18" fill="none" xmlns="http://www.w3.org/2000/svg">
<path d="M9 0C10.8633 0 12.375 1.5112 12.375 3.37385V3.50037C12.375 4.05213 11.9285 4.49846 11.3766 4.49846H6.62344C6.07148 4.49846 5.625 4.05213 5.625 3.50037V3.37385C5.625 1.5112 7.13672 0 9 0ZM1.45547 3.7042C1.89492 3.2649 2.60859 3.2649 3.04805 3.7042L5.29805 5.95343C5.32266 5.97803 5.34375 6.00264 5.36484 6.02724C5.86406 5.77068 6.43359 5.62659 7.03477 5.62659H10.9688C11.5699 5.62659 12.1359 5.77068 12.6387 6.02724C12.6598 6.00264 12.6809 5.97803 12.7055 5.95343L14.9555 3.7042C15.3949 3.2649 16.1086 3.2649 16.548 3.7042C16.9875 4.14351 16.9875 4.85693 16.548 5.29624L14.298 7.54547C14.2734 7.57007 14.2488 7.59116 14.2242 7.61224C14.4422 8.03397 14.5793 8.50139 14.6145 9.00044H16.875C17.4973 9.00044 18 9.503 18 10.1251C18 10.7471 17.4973 11.2497 16.875 11.2497H14.625C14.625 12.1142 14.4316 12.9296 14.0836 13.6606C14.1609 13.7063 14.2313 13.7625 14.2945 13.8293L16.5445 16.0785C16.984 16.5178 16.984 17.2312 16.5445 17.6705C16.1051 18.1098 15.3914 18.1098 14.952 17.6705L12.7336 15.4529C11.8723 16.2191 10.7719 16.7251 9.55898 16.8446V8.43462C9.55898 8.12535 9.30586 7.87231 8.99648 7.87231C8.68711 7.87231 8.43398 8.12535 8.43398 8.43462V16.8411C7.22109 16.7216 6.1207 16.2156 5.25938 15.4494L3.04453 17.6635C2.60508 18.1028 1.89141 18.1028 1.45195 17.6635C1.0125 17.2242 1.0125 16.5108 1.45195 16.0715L3.70195 13.8222C3.76875 13.7555 3.83906 13.7027 3.91289 13.6535C3.56836 12.9261 3.375 12.1107 3.375 11.2462H1.125C0.502734 11.2462 0 10.7436 0 10.1215C0 9.49949 0.502734 8.99693 1.125 8.99693H3.38555C3.42422 8.50139 3.56133 8.03046 3.77578 7.60873C3.75117 7.58764 3.72656 7.56656 3.70195 7.54195L1.45195 5.29272C1.0125 4.85342 1.0125 4.13999 1.45195 3.70069L1.45547 3.7042Z" fill="white"/>
</svg>
