<svg width="20" height="20" viewBox="0 0 20 20" fill="none" xmlns="http://www.w3.org/2000/svg">
<path d="M10 18.125C7.84512 18.125 5.77849 17.269 4.25476 15.7452C2.73102 14.2215 1.875 12.1549 1.875 10C1.875 7.84512 2.73102 5.77849 4.25476 4.25476C5.77849 2.73102 7.84512 1.875 10 1.875C12.1549 1.875 14.2215 2.73102 15.7452 4.25476C17.269 5.77849 18.125 7.84512 18.125 10C18.125 12.1549 17.269 14.2215 15.7452 15.7452C14.2215 17.269 12.1549 18.125 10 18.125ZM10 0C7.34784 0 4.8043 1.05357 2.92893 2.92893C1.05357 4.8043 0 7.34784 0 10C0 12.6522 1.05357 15.1957 2.92893 17.0711C4.8043 18.9464 7.34784 20 10 20C12.6522 20 15.1957 18.9464 17.0711 17.0711C18.9464 15.1957 20 12.6522 20 10C20 7.34784 18.9464 4.8043 17.0711 2.92893C15.1957 1.05357 12.6522 0 10 0ZM14.7227 11.5078C14.8984 11.3438 15 11.1133 15 10.8711C15 10.3906 14.6094 10 14.1289 10H11.875V6.25C11.875 5.55859 11.3164 5 10.625 5H9.375C8.68359 5 8.125 5.55859 8.125 6.25V10H5.87109C5.39063 10 5 10.3906 5 10.8711C5 11.1133 5.10156 11.3438 5.27734 11.5078L9.46094 15.4102C9.60937 15.5469 9.80078 15.625 10 15.625C10.1992 15.625 10.3945 15.5469 10.5391 15.4102L14.7227 11.5078Z" fill="white"/>
</svg>
