<svg width="18" height="17" viewBox="0 0 18 17" fill="none" xmlns="http://www.w3.org/2000/svg">
<path d="M6.02056 13.6884C6.02056 13.7587 5.9371 13.8149 5.83185 13.8149C5.7121 13.8255 5.62863 13.7692 5.62863 13.6884C5.62863 13.6181 5.7121 13.5618 5.81734 13.5618C5.92621 13.5513 6.02056 13.6075 6.02056 13.6884ZM4.89194 13.5302C4.86653 13.6005 4.93911 13.6813 5.04798 13.7024C5.14234 13.7376 5.25121 13.7024 5.27298 13.6321C5.29476 13.5618 5.22581 13.481 5.11694 13.4493C5.02258 13.4247 4.91734 13.4599 4.89194 13.5302ZM6.49597 13.4704C6.39073 13.495 6.31814 13.5618 6.32903 13.6427C6.33992 13.713 6.43427 13.7587 6.54315 13.7341C6.64839 13.7095 6.72097 13.6427 6.71008 13.5724C6.69919 13.5056 6.60121 13.4599 6.49597 13.4704ZM8.88387 0C3.8504 0 0 3.70156 0 8.5772C0 12.4756 2.53306 15.8116 6.15121 16.9857C6.61573 17.0665 6.77903 16.7888 6.77903 16.5603C6.77903 16.3424 6.76814 15.1402 6.76814 14.402C6.76814 14.402 4.22782 14.9293 3.69435 13.3544C3.69435 13.3544 3.28065 12.3315 2.68548 12.0678C2.68548 12.0678 1.85444 11.516 2.74355 11.5265C2.74355 11.5265 3.64718 11.5968 4.14435 12.4334C4.93911 13.7903 6.27097 13.4001 6.78992 13.1681C6.87339 12.6057 7.10927 12.2155 7.37056 11.9835C5.34194 11.7655 3.29516 11.4808 3.29516 8.09913C3.29516 7.13244 3.57097 6.64733 4.15161 6.02865C4.05726 5.80016 3.74879 4.85807 4.24597 3.6418C5.00444 3.41331 6.75 4.59091 6.75 4.59091C7.47581 4.39406 8.25605 4.29212 9.02903 4.29212C9.80202 4.29212 10.5823 4.39406 11.3081 4.59091C11.3081 4.59091 13.0536 3.40979 13.8121 3.6418C14.3093 4.86159 14.0008 5.80016 13.9065 6.02865C14.4871 6.65085 14.8427 7.13595 14.8427 8.09913C14.8427 11.4913 12.7052 11.762 10.6766 11.9835C11.0105 12.2612 11.2935 12.7885 11.2935 13.6146C11.2935 14.7992 11.2827 16.2651 11.2827 16.5533C11.2827 16.7818 11.4496 17.0595 11.9105 16.9786C15.5395 15.8116 18 12.4756 18 8.5772C18 3.70156 13.9173 0 8.88387 0ZM3.52742 12.1241C3.48024 12.1592 3.49113 12.2401 3.55282 12.3069C3.61089 12.3631 3.69435 12.3877 3.74153 12.342C3.78871 12.3069 3.77782 12.226 3.71613 12.1592C3.65806 12.103 3.5746 12.0784 3.52742 12.1241ZM3.13548 11.8394C3.11008 11.8851 3.14637 11.9413 3.21895 11.9764C3.27702 12.0116 3.3496 12.0011 3.375 11.9518C3.4004 11.9061 3.36411 11.8499 3.29153 11.8147C3.21895 11.7937 3.16089 11.8042 3.13548 11.8394ZM4.31129 13.0908C4.25323 13.1365 4.275 13.2419 4.35847 13.3087C4.44194 13.3896 4.54718 13.4001 4.59435 13.3439C4.64153 13.2982 4.61976 13.1927 4.54718 13.1259C4.46734 13.0451 4.35847 13.0345 4.31129 13.0908ZM3.89758 12.574C3.83952 12.6092 3.83952 12.7006 3.89758 12.7814C3.95565 12.8623 4.05363 12.8974 4.10081 12.8623C4.15887 12.8166 4.15887 12.7252 4.10081 12.6443C4.05 12.5635 3.95565 12.5283 3.89758 12.574Z" fill="white"/>
</svg>
