<svg width="19" height="17" viewBox="0 0 19 17" fill="none" xmlns="http://www.w3.org/2000/svg">
<path d="M10.5164 0.105522C10.918 0.302841 11.1765 0.735425 11.1765 1.21354V15.7848C11.1765 16.2629 10.918 16.6955 10.5164 16.8928C10.1147 17.0901 9.6432 17.0104 9.31489 16.6917L4.60331 12.142H2.23529C1.00239 12.142 0 11.0529 0 9.71343V7.28489C0 5.9454 1.00239 4.85635 2.23529 4.85635H4.60331L9.31489 0.306636C9.6432 -0.0121102 10.1147 -0.088002 10.5164 0.105522ZM16.5237 2.84522C18.0325 4.18092 19 6.21861 19 8.49916C19 10.7797 18.0325 12.8174 16.5237 14.1531C16.164 14.4719 15.6366 14.4111 15.3432 14.0203C15.0498 13.6295 15.1057 13.0565 15.4654 12.7377C16.6006 11.736 17.3235 10.2105 17.3235 8.49916C17.3235 6.7878 16.6006 5.26237 15.4654 4.25681C15.1057 3.93806 15.0533 3.36508 15.3432 2.97423C15.6331 2.58339 16.164 2.52647 16.5237 2.84142V2.84522ZM14.4107 5.67219C15.1616 6.34004 15.6471 7.35699 15.6471 8.49916C15.6471 9.64134 15.1616 10.6583 14.4107 11.3261C14.0509 11.6449 13.5235 11.5842 13.2301 11.1933C12.9368 10.8025 12.9926 10.2295 13.3524 9.91075C13.7296 9.57683 13.9706 9.06835 13.9706 8.49916C13.9706 7.92997 13.7296 7.4215 13.3524 7.08378C12.9926 6.76503 12.9403 6.19205 13.2301 5.80121C13.52 5.41036 14.0509 5.35344 14.4107 5.6684V5.67219Z" fill="white"/>
</svg>
